# Blender v2.71 (sub 0) OBJ File: ''
# www.blender.org
mtllib test.mtl
o Cube
v 1.000000 -1.000000 -1.000000
v 1.000000 -1.000000 1.000000
v -1.000000 -1.000000 1.000000
v -1.000000 -1.000000 -1.000000
v 1.000000 1.000000 -0.999999
v 0.999999 1.000000 1.000001
v -1.000000 1.000000 1.000000
v -1.000000 1.000000 -1.000000
vt 0.000100 0.000100
vt 0.000100 0.999900
vt 0.999900 0.999900
vt 0.999900 0.000100
vt 0.000000 0.000000
vn -0.000000 -0.000000 1.000000
vn 0.000000 -1.000000 0.000000
vn 0.000000 1.000000 0.000000
vn 1.000000 -0.000000 0.000000
vn -1.000000 -0.000000 -0.000000
vn 0.000000 0.000000 -1.000000
usemtl Material
s off
f 2/1/1 6/2/1 7/3/1
f 3/4/1 2/1/1 7/3/1
usemtl Material_NONE
f 2/5/2 3/5/2 4/5/2
f 8/5/3 7/5/3 6/5/3
f 1/5/4 5/5/4 6/5/4
f 7/5/5 8/5/5 4/5/5
f 1/5/6 4/5/6 8/5/6
f 1/5/2 2/5/2 4/5/2
f 5/5/3 8/5/3 6/5/3
f 2/5/4 1/5/4 6/5/4
f 3/5/5 7/5/5 4/5/5
f 5/5/6 1/5/6 8/5/6
